<?xml version="1.0" encoding="iso-8859-1"?>
<!-- Generator: Adobe Illustrator 25.2.1, SVG Export Plug-In . SVG Version: 6.00 Build 0)  -->
<svg version="1.1" id="Layer_2_1_" xmlns="http://www.w3.org/2000/svg" xmlns:xlink="http://www.w3.org/1999/xlink" x="0px" y="0px"
	 width="431px" height="400.191px" viewBox="0 0 431 400.191" enable-background="new 0 0 431 400.191" xml:space="preserve">
<g>
	<g>
		<g>
			<g>
				<g>
					<path fill="#FF7F00" stroke="#FF7F00" stroke-width="7" stroke-miterlimit="10" d="M216.743,68.173c-4.142,0-7.5-3.358-7.5-7.5
						V11c0-4.142,3.358-7.5,7.5-7.5s7.5,3.358,7.5,7.5v49.673C224.243,64.815,220.885,68.173,216.743,68.173z"/>
				</g>
				<g>
					<path fill="#FF7F00" stroke="#FF7F00" stroke-width="7" stroke-miterlimit="10" d="M216.743,392.392
						c-4.142,0-7.5-3.357-7.5-7.5v-49.673c0-4.143,3.358-7.5,7.5-7.5s7.5,3.357,7.5,7.5v49.673
						C224.243,389.035,220.885,392.392,216.743,392.392z"/>
				</g>
			</g>
			<g>
				<g>
					<path fill="#FF7F00" stroke="#FF7F00" stroke-width="7" stroke-miterlimit="10" d="M315.725,362.849
						c-2.592,0-5.113-1.345-6.502-3.751l-24.836-43.018c-2.071-3.587-0.842-8.174,2.745-10.245
						c3.586-2.072,8.174-0.843,10.245,2.745l24.836,43.018c2.071,3.587,0.842,8.174-2.745,10.245
						C318.287,362.525,316.997,362.849,315.725,362.849z"/>
				</g>
			</g>
			<g>
				<g>
					<path fill="#FF7F00" stroke="#FF7F00" stroke-width="7" stroke-miterlimit="10" d="M378.636,298.921
						c-1.272,0-2.562-0.324-3.743-1.006l-43.019-24.836c-3.587-2.071-4.816-6.658-2.745-10.245s6.657-4.817,10.245-2.745
						l43.019,24.836c3.587,2.071,4.816,6.658,2.745,10.245C383.749,297.575,381.228,298.921,378.636,298.921z"/>
				</g>
			</g>
			<g>
				<g>
					<path fill="#FF7F00" stroke="#FF7F00" stroke-width="7" stroke-miterlimit="10" d="M335.631,136.812
						c-2.592,0-5.113-1.345-6.502-3.751c-2.071-3.587-0.842-8.174,2.745-10.245l43.019-24.837c3.587-2.072,8.174-0.843,10.245,2.745
						c2.071,3.587,0.842,8.174-2.745,10.245l-43.019,24.837C338.193,136.487,336.904,136.812,335.631,136.812z"/>
				</g>
			</g>
			<g>
				<g>
					<path fill="#FF7F00" stroke="#FF7F00" stroke-width="7" stroke-miterlimit="10" d="M285.373,86.566
						c-1.272,0-2.562-0.324-3.743-1.006c-3.587-2.071-4.816-6.658-2.745-10.245l24.836-43.018c2.07-3.587,6.657-4.817,10.245-2.745
						c3.587,2.071,4.816,6.658,2.745,10.245l-24.836,43.018C290.485,85.22,287.964,86.566,285.373,86.566z"/>
				</g>
			</g>
		</g>
		<path fill="#FF7F00" stroke="#FF7F00" stroke-width="7" stroke-miterlimit="10" d="M216.743,85.135c-4.142,0-7.5,3.358-7.5,7.5
			v80.056h15V100.42c50.445,3.84,90.312,46.115,90.312,97.527s-39.866,93.687-90.312,97.527v-71.782h-15v79.567
			c0,4.142,3.358,7.5,7.5,7.5c62.205,0,112.812-50.607,112.812-112.812S278.947,85.135,216.743,85.135z"/>
	</g>
	<g>
		<path fill="#11257C" stroke="#11257C" stroke-width="7" stroke-miterlimit="10" d="M31.241,238.976
			C23.184,226.213,18.5,211.118,18.5,194.941c0-34.275,20.948-63.747,50.713-76.293l-5.121-5.529l0.158-8.648
			C28.643,119.086,3.5,154.13,3.5,194.941c0,21.557,7.019,41.502,18.885,57.681L31.241,238.976z"/>
	</g>
	<g>
		<path fill="#11257C" stroke="#11257C" stroke-width="7" stroke-miterlimit="10" d="M149,280.691c-24.813,0-45-20.187-45-45
			s20.187-45,45-45h112.5c4.142,0,7.5,3.358,7.5,7.5s-3.358,7.5-7.5,7.5H149c-16.542,0-30,13.458-30,30s13.458,30,30,30
			c4.142,0,7.5,3.358,7.5,7.5S153.142,280.691,149,280.691z"/>
	</g>
	
		<circle fill="#FFFFFF" stroke="#11257C" stroke-width="14" stroke-linecap="round" stroke-linejoin="round" stroke-miterlimit="10" cx="261.5" cy="197.691" r="14"/>
	<g>
		<path fill="#11257C" stroke="#11257C" stroke-width="7" stroke-miterlimit="10" d="M146.5,396.691c-24.813,0-45-20.187-45-45
			s20.187-45,45-45c4.142,0,7.5,3.358,7.5,7.5c0,4.143-3.358,7.5-7.5,7.5c-16.542,0-30,13.458-30,30s13.458,30,30,30
			s30-13.458,30-30V32.658c-5.221-5.218-22.51-19.312-48.782-9.001C96.225,36.02,98.113,68.863,98.136,69.193
			c0.141,2.054-0.568,4.076-1.961,5.592c-1.394,1.516-3.349,2.392-5.407,2.423c-0.041,0.002-9.626,0.374-16.108,7.367
			c-4.745,5.119-6.921,12.775-6.469,22.755c0.388,8.559,2.699,14.811,6.871,18.584c5.028,4.548,11.551,4.245,11.615,4.241
			c4.128-0.331,7.698,2.764,8.022,6.894c0.324,4.129-2.803,7.743-6.932,8.066c-1.284,0.099-12.798,0.734-22.503-7.84
			c-7.418-6.554-11.475-16.4-12.057-29.266c-0.646-14.262,2.933-25.644,10.639-33.831c6.244-6.634,13.87-9.591,19.374-10.91
			C84.428,46.7,93.405,21.012,122.239,9.693c21.675-8.507,38.872-3.949,49.481,1.373c11.472,5.755,17.874,13.67,18.141,14.004
			c1.062,1.329,1.641,2.98,1.641,4.681v321.938C191.5,376.504,171.313,396.691,146.5,396.691z"/>
	</g>
	<g>
		<path fill="#11257C" stroke="#11257C" stroke-width="7" stroke-miterlimit="10" d="M89.19,368.887
			c-19.296,0-37.751-11.11-46.149-29.824c-5.522-12.307-5.921-26.027-1.124-38.634s14.217-22.591,26.524-28.114
			c3.782-1.696,8.218-0.006,9.913,3.772c1.696,3.779,0.007,8.217-3.772,9.913c-8.651,3.882-15.273,10.9-18.646,19.763
			c-3.372,8.863-3.091,18.508,0.791,27.159c8.014,17.858,29.061,25.869,46.922,17.855c3.781-1.695,8.217-0.006,9.913,3.772
			c1.696,3.779,0.007,8.218-3.772,9.913C103.099,367.465,96.089,368.887,89.19,368.887z"/>
	</g>
	<g>
		<path fill="#11257C" stroke="#11257C" stroke-width="7" stroke-miterlimit="10" d="M184,132.191c-4.142,0-7.5-3.358-7.5-7.5
			c0-4.962-4.038-9-9-9s-9,4.038-9,9c0,4.142-3.358,7.5-7.5,7.5s-7.5-3.358-7.5-7.5c0-13.233,10.767-24,24-24s24,10.767,24,24
			C191.5,128.833,188.142,132.191,184,132.191z"/>
	</g>
	<g>
		<path fill="#11257C" stroke="#11257C" stroke-width="7" stroke-miterlimit="10" d="M80.222,246.481
			c-6.057,0-11.885-2.053-16.661-5.915c-5.519-4.463-8.97-10.81-9.716-17.868c-0.747-7.059,1.301-13.985,5.764-19.504
			s10.809-8.97,17.868-9.716c4.113-0.431,7.812,2.551,8.247,6.67s-2.551,7.812-6.67,8.247c-3.074,0.325-5.838,1.828-7.782,4.232
			c-1.944,2.403-2.835,5.42-2.51,8.495c0.325,3.074,1.828,5.838,4.231,7.782c2.404,1.944,5.421,2.839,8.495,2.511
			c4.123-0.432,7.812,2.551,8.247,6.67c0.436,4.119-2.551,7.812-6.67,8.247C82.115,246.431,81.165,246.481,80.222,246.481z"/>
	</g>
	<g>
		<path fill="#11257C" stroke="#11257C" stroke-width="7" stroke-miterlimit="10" d="M105.269,163.391
			c-0.449,0-0.904-0.041-1.361-0.125c-14.412-2.642-23.988-16.517-21.346-30.93s16.52-23.987,30.93-21.347
			c4.075,0.747,6.772,4.655,6.025,8.729c-0.747,4.075-4.66,6.774-8.729,6.025c-6.278-1.146-12.321,3.02-13.472,9.297
			c-1.15,6.277,3.02,12.32,9.297,13.471c4.074,0.747,6.771,4.655,6.024,8.729C111.974,160.859,108.819,163.391,105.269,163.391z"/>
	</g>
	<g>
		<path fill="#11257C" stroke="#11257C" stroke-width="7" stroke-miterlimit="10" d="M150.013,90.289
			c-13.41,0-24.965-10.154-26.407-23.781c-1.541-14.572,9.061-27.68,23.632-29.221c4.117-0.436,7.812,2.551,8.247,6.67
			c0.436,4.119-2.551,7.812-6.67,8.247c-6.346,0.671-10.963,6.38-10.292,12.727s6.379,10.963,12.727,10.292
			c4.112-0.436,7.812,2.55,8.247,6.67c0.436,4.119-2.551,7.812-6.67,8.247C151.883,90.239,150.942,90.289,150.013,90.289z"/>
	</g>
	<g>
		<path fill="#11257C" stroke="#11257C" stroke-width="7" stroke-miterlimit="10" d="M49.884,294.368
			c-2.705-1.233-5.273-2.812-7.645-4.731c-7.373-5.963-11.982-14.44-12.979-23.87s1.738-18.683,7.701-26.056
			s14.44-11.982,23.87-12.979c4.119-0.436,7.105-4.128,6.67-8.247c-0.436-4.12-4.135-7.102-8.247-6.67
			c-13.414,1.418-25.473,7.976-33.956,18.464s-12.373,23.652-10.955,37.066c2.194,20.753,16.737,37.256,35.542,42.997
			L49.884,294.368L49.884,294.368z"/>
	</g>
	<g>
		<g>
			<path fill="#FF7F00" stroke="#FF7F00" stroke-width="7" stroke-miterlimit="10" d="M421.947,205.446h-67.878
				c-3.067,0-5.553-3.358-5.553-7.5s2.486-7.5,5.553-7.5h67.878c3.067,0,5.553,3.358,5.553,7.5S425.014,205.446,421.947,205.446z"/>
		</g>
	</g>
	
		<linearGradient id="SVGID_1_" gradientUnits="userSpaceOnUse" x1="215.5" y1="402" x2="215.5" y2="1.809" gradientTransform="matrix(1 0 0 -1 0 402)">
		<stop  offset="0.4806" style="stop-color:#FFFFFF"/>
		<stop  offset="1" style="stop-color:#352163"/>
	</linearGradient>
	<path opacity="0.2" fill="url(#SVGID_1_)" enable-background="new    " d="M205.743,60.673V11c0-6.065,4.935-11,11-11
		s11,4.935,11,11v49.673c0,6.065-4.935,11-11,11S205.743,66.739,205.743,60.673z M216.743,324.219c-6.065,0-11,4.935-11,11v49.673
		c0,6.065,4.935,11,11,11s11-4.935,11-11v-49.673C227.743,329.154,222.808,324.219,216.743,324.219z M300.408,306.831
		c-1.469-2.545-3.841-4.365-6.68-5.125c-2.838-0.76-5.803-0.369-8.347,1.099c-2.544,1.469-4.365,3.841-5.125,6.679
		c-0.76,2.838-0.37,5.803,1.099,8.347l24.836,43.018c1.959,3.394,5.612,5.501,9.533,5.501c1.922,0,3.821-0.51,5.493-1.475
		c2.545-1.47,4.365-3.842,5.125-6.68c0.76-2.838,0.37-5.803-1.099-8.347L300.408,306.831z M384.143,281.893l-43.019-24.836
		c-2.545-1.469-5.509-1.859-8.348-1.099c-2.838,0.761-5.209,2.581-6.679,5.125s-1.859,5.509-1.099,8.347
		c0.761,2.838,2.581,5.21,5.125,6.679l43.018,24.836c1.671,0.965,3.571,1.476,5.494,1.476c3.921,0,7.574-2.108,9.533-5.501
		c1.469-2.544,1.859-5.509,1.099-8.347C388.508,285.734,386.688,283.362,384.143,281.893z M335.631,140.312
		c1.922,0,3.822-0.51,5.493-1.475L384.143,114c2.544-1.469,4.365-3.841,5.125-6.679s0.37-5.803-1.099-8.347
		c-1.469-2.545-3.841-4.365-6.679-5.125c-2.837-0.759-5.802-0.37-8.347,1.099l-43.019,24.837c-2.544,1.469-4.365,3.841-5.125,6.679
		c-0.76,2.838-0.37,5.803,1.099,8.347C328.057,138.204,331.71,140.312,335.631,140.312z M279.879,88.59
		c1.671,0.965,3.571,1.476,5.494,1.476c3.921,0,7.574-2.108,9.533-5.501l24.836-43.018c1.469-2.544,1.859-5.509,1.099-8.347
		c-0.761-2.838-2.581-5.21-5.125-6.679c-2.544-1.47-5.508-1.86-8.348-1.1c-2.838,0.761-5.21,2.581-6.679,5.125l-24.836,43.018
		c-1.469,2.544-1.859,5.509-1.099,8.347C275.515,84.75,277.335,87.122,279.879,88.59z M227.743,104.272
		c47.013,5.497,83.312,45.928,83.312,93.674s-36.298,88.177-83.312,93.674v-71.429h-22v83.067c0,6.065,4.935,11,11,11
		c64.134,0,116.312-52.177,116.312-116.312S280.877,81.635,216.743,81.635c-6.065,0-11,4.935-11,11v83.556h22V104.272z M195,209.191
		v142.5c0,26.743-21.757,48.5-48.5,48.5c-19.947,0-37.115-12.107-44.555-29.357c-4.16,1.021-8.421,1.553-12.755,1.553
		c-21.281,0-40.649-12.519-49.342-31.892c-4.647-10.357-5.885-21.648-3.709-32.559c-13.995-8.653-23.495-23.36-25.277-40.223
		c-0.823-7.777,0.037-15.47,2.43-22.676C4.572,229.821,0,212.712,0,194.941c0-36.26,19.102-69.07,49.7-87.13
		c-0.614-15.075,3.283-27.199,11.596-36.031c5.977-6.35,13.085-9.6,18.668-11.26c1.379-11.972,8.142-41.188,40.995-54.083
		c22.876-8.98,41.083-4.14,52.329,1.502c12.175,6.108,19.022,14.593,19.308,14.951c1.549,1.939,2.404,4.377,2.404,6.863v157.438
		h48.341c3.638-6.266,10.406-10.5,18.159-10.5c11.58,0,21,9.42,21,21s-9.42,21-21,21c-7.335,0-13.794-3.786-17.551-9.5H195z
		 M173,351.691v-142.5h-24c-14.612,0-26.5,11.888-26.5,26.5s11.888,26.5,26.5,26.5c6.065,0,11,4.935,11,11s-4.935,11-11,11
		c-26.743,0-48.5-21.757-48.5-48.5s21.757-48.5,48.5-48.5h24v-62.5c0-3.033-2.467-5.5-5.5-5.5s-5.5,2.467-5.5,5.5
		c0,6.065-4.935,11-11,11s-11-4.935-11-11c0-15.164,12.336-27.5,27.5-27.5c1.883,0,3.722,0.191,5.5,0.553V34.146
		c-6.325-5.87-21.475-16.07-44.003-7.231c-28.85,11.325-27.442,40.806-27.368,42.056c0.205,2.981-0.844,5.97-2.877,8.183
		c-2.035,2.213-4.925,3.508-7.931,3.554c0.012,0.001-8.207,0.435-13.594,6.247c-4.084,4.406-5.948,11.208-5.54,20.218
		c0.216,4.761,1.055,8.671,2.501,11.697l0.986,1.064l-0.327,0.138c0.734,1.26,1.579,2.358,2.562,3.247
		c1.123,1.016,2.358,1.72,3.547,2.214c5.333-12.762,19.02-20.575,33.167-17.986c2.89,0.53,5.401,2.153,7.07,4.571
		s2.296,5.342,1.766,8.232s-2.154,5.401-4.573,7.071s-5.344,2.299-8.232,1.765c-4.375-0.799-8.594,2.11-9.396,6.487
		c-0.802,4.378,2.107,8.594,6.486,9.397c2.89,0.529,5.4,2.153,7.069,4.571s2.296,5.342,1.766,8.232
		c-0.958,5.225-5.504,9.018-10.811,9.018c-0.665,0-1.335-0.061-1.993-0.182c-10.563-1.936-18.825-9.208-22.527-18.521
		c-4.987-0.807-11.731-2.925-17.803-8.289c-3.056-2.7-5.592-5.888-7.602-9.547C34.674,145.023,22,168.894,22,194.941
		c0,9.671,1.778,19.188,5.189,28.129c6.944-6.687,15.473-11.339,24.853-13.555c1.124-3.046,2.745-5.923,4.847-8.522
		c5.051-6.246,12.232-10.151,20.221-10.996c6.037-0.636,11.458,3.756,12.096,9.782c0.638,6.032-3.75,11.458-9.782,12.096
		c-2.145,0.227-4.073,1.275-5.429,2.952s-1.978,3.781-1.751,5.926c0.227,2.145,1.275,4.073,2.952,5.429
		c1.68,1.359,3.788,1.979,5.922,1.752c6.048-0.638,11.462,3.756,12.1,9.782c0.309,2.922-0.539,5.79-2.386,8.074
		c-1.848,2.284-4.474,3.713-7.396,4.021c-1.065,0.113-2.146,0.17-3.212,0.17c-6.924,0-13.447-2.314-18.861-6.693
		c-3.725-3.013-6.609-6.787-8.517-11.034c-5.1,1.998-9.624,5.284-13.162,9.659c-5.375,6.646-7.84,14.988-6.941,23.487
		c0.899,8.5,5.054,16.142,11.7,21.517c0.164,0.132,0.336,0.252,0.502,0.381c5.518-7.869,13.069-14.138,22.066-18.176
		c5.535-2.482,12.057,0,14.54,5.533c1.203,2.68,1.29,5.669,0.245,8.415s-3.097,4.921-5.778,6.124
		c-7.798,3.499-13.767,9.826-16.807,17.814c-3.04,7.989-2.786,16.683,0.713,24.482c6.612,14.733,23.066,22.02,38.15,17.614
		c1.349-25.545,22.554-45.913,48.43-45.913c6.065,0,11,4.935,11,11s-4.935,11-11,11c-14.612,0-26.5,11.888-26.5,26.5
		s11.888,26.5,26.5,26.5S173,366.303,173,351.691z M150.013,93.789c1.053,0,2.123-0.057,3.183-0.168
		c6.032-0.638,10.42-6.064,9.782-12.096c-0.309-2.922-1.738-5.549-4.025-7.397c-2.286-1.848-5.154-2.694-8.07-2.385
		c-4.435,0.461-8.411-2.753-8.879-7.18s2.753-8.41,7.18-8.878c6.032-0.638,10.42-6.064,9.782-12.095
		c-0.309-2.922-1.737-5.549-4.022-7.397s-5.153-2.697-8.073-2.386c-16.49,1.743-28.488,16.578-26.745,33.069
		C121.748,82.218,134.597,93.789,150.013,93.789z M421.947,186.946h-67.878c-5.077,0-9.053,4.832-9.053,11s3.977,11,9.053,11h67.878
		c5.077,0,9.053-4.832,9.053-11S427.023,186.946,421.947,186.946z"/>
</g>
</svg>
