<?xml version="1.0" encoding="utf-8" standalone="no"?>
<!DOCTYPE svg PUBLIC "-//W3C//DTD SVG 1.1//EN"
  "http://www.w3.org/Graphics/SVG/1.1/DTD/svg11.dtd">
<svg xmlns:xlink="http://www.w3.org/1999/xlink" width="2894.4pt" height="1569.6pt" viewBox="0 0 2894.4 1569.6" xmlns="http://www.w3.org/2000/svg" version="1.1">
 <metadata>
  <rdf:RDF xmlns:dc="http://purl.org/dc/elements/1.1/" xmlns:cc="http://creativecommons.org/ns#" xmlns:rdf="http://www.w3.org/1999/02/22-rdf-syntax-ns#">
   <cc:Work>
    <dc:type rdf:resource="http://purl.org/dc/dcmitype/StillImage"/>
    <dc:date>2022-11-23T12:38:58.485014</dc:date>
    <dc:format>image/svg+xml</dc:format>
    <dc:creator>
     <cc:Agent>
      <dc:title>Matplotlib v3.6.2, https://matplotlib.org/</dc:title>
     </cc:Agent>
    </dc:creator>
   </cc:Work>
  </rdf:RDF>
 </metadata>
 <defs>
  <style type="text/css">*{stroke-linejoin: round; stroke-linecap: butt}</style>
 </defs>
 <g id="figure_1">
  <g id="patch_1">
   <path d="M 0 1569.6 
L 2894.4 1569.6 
L 2894.4 0 
L 0 0 
z
" style="fill: #ffffff"/>
  </g>
  <g id="axes_1">
   <g id="LineCollection_1">
    <path d="M 257.117355 842.400052 
L 605.684577 1263.157818 
" clip-path="url(#p37660b763f)" style="fill: none; stroke: #000000; stroke-width: 1.384615"/>
    <path d="M 257.117355 842.400052 
L 1447.200014 1437.441322 
" clip-path="url(#p37660b763f)" style="fill: none; stroke: #000000; stroke-width: 2.153846"/>
    <path d="M 605.684577 1263.157818 
L 2288.715778 1263.157605 
" clip-path="url(#p37660b763f)" style="fill: none; stroke: #000000; stroke-width: 1.384615"/>
    <path d="M 1447.200014 1437.441322 
L 2288.715778 1263.157605 
" clip-path="url(#p37660b763f)" style="fill: none; stroke: #000000; stroke-width: 3.692308"/>
    <path d="M 1447.200014 1437.441322 
L 2288.715494 421.642253 
" clip-path="url(#p37660b763f)" style="fill: none; stroke: #000000; stroke-width: 11"/>
    <path d="M 1447.200014 1437.441322 
L 1447.199598 247.358678 
" clip-path="url(#p37660b763f)" style="fill: none; stroke: #000000; stroke-width: 1.769231"/>
    <path d="M 1447.200014 1437.441322 
L 605.684719 421.642111 
" clip-path="url(#p37660b763f)" style="fill: none; stroke: #000000; stroke-width: 2.538462"/>
    <path d="M 2288.715778 1263.157605 
L 2637.282645 842.399896 
" clip-path="url(#p37660b763f)" style="fill: none; stroke: #000000; stroke-width: 4.461538"/>
   </g>
   <g id="PathCollection_1">
    <defs>
     <path id="C0_0_9193cad86f" d="M 0 68.920244 
C 18.277862 68.920244 35.809571 61.658372 48.733972 48.733972 
C 61.658372 35.809571 68.920244 18.277862 68.920244 -0 
C 68.920244 -18.277862 61.658372 -35.809571 48.733972 -48.733972 
C 35.809571 -61.658372 18.277862 -68.920244 0 -68.920244 
C -18.277862 -68.920244 -35.809571 -61.658372 -48.733972 -48.733972 
C -61.658372 -35.809571 -68.920244 -18.277862 -68.920244 0 
C -68.920244 18.277862 -61.658372 35.809571 -48.733972 48.733972 
C -35.809571 61.658372 -18.277862 68.920244 0 68.920244 
z
"/>
    </defs>
    <g clip-path="url(#p37660b763f)">
     <use xlink:href="#C0_0_9193cad86f" x="257.117355" y="842.400052" style="fill: #90ee90; stroke: #90ee90"/>
    </g>
    <g clip-path="url(#p37660b763f)">
     <use xlink:href="#C0_0_9193cad86f" x="605.684577" y="1263.157818" style="fill: #6495ed; stroke: #6495ed"/>
    </g>
    <g clip-path="url(#p37660b763f)">
     <use xlink:href="#C0_0_9193cad86f" x="1447.200014" y="1437.441322" style="fill: #6495ed; stroke: #6495ed"/>
    </g>
    <g clip-path="url(#p37660b763f)">
     <use xlink:href="#C0_0_9193cad86f" x="2288.715778" y="1263.157605" style="fill: #90ee90; stroke: #90ee90"/>
    </g>
    <g clip-path="url(#p37660b763f)">
     <use xlink:href="#C0_0_9193cad86f" x="2637.282645" y="842.399896" style="fill: #6495ed; stroke: #6495ed"/>
    </g>
    <g clip-path="url(#p37660b763f)">
     <use xlink:href="#C0_0_9193cad86f" x="2288.715494" y="421.642253" style="fill: #90ee90; stroke: #90ee90"/>
    </g>
    <g clip-path="url(#p37660b763f)">
     <use xlink:href="#C0_0_9193cad86f" x="1447.199598" y="247.358678" style="fill: #90ee90; stroke: #90ee90"/>
    </g>
    <g clip-path="url(#p37660b763f)">
     <use xlink:href="#C0_0_9193cad86f" x="605.684719" y="421.642111" style="fill: #90ee90; stroke: #90ee90"/>
    </g>
   </g>
   <g id="text_1">
    <g clip-path="url(#p37660b763f)">
     <!-- combiner -->
     <g transform="translate(165.00173 852.057865) scale(0.35 -0.35)">
      <defs>
       <path id="DejaVuSans-Bold-63" d="M 3366 3391 
L 3366 2478 
Q 3138 2634 2908 2709 
Q 2678 2784 2431 2784 
Q 1963 2784 1702 2511 
Q 1441 2238 1441 1747 
Q 1441 1256 1702 982 
Q 1963 709 2431 709 
Q 2694 709 2930 787 
Q 3166 866 3366 1019 
L 3366 103 
Q 3103 6 2833 -42 
Q 2563 -91 2291 -91 
Q 1344 -91 809 395 
Q 275 881 275 1747 
Q 275 2613 809 3098 
Q 1344 3584 2291 3584 
Q 2566 3584 2833 3536 
Q 3100 3488 3366 3391 
z
" transform="scale(0.015625)"/>
       <path id="DejaVuSans-Bold-6f" d="M 2203 2784 
Q 1831 2784 1636 2517 
Q 1441 2250 1441 1747 
Q 1441 1244 1636 976 
Q 1831 709 2203 709 
Q 2569 709 2762 976 
Q 2956 1244 2956 1747 
Q 2956 2250 2762 2517 
Q 2569 2784 2203 2784 
z
M 2203 3584 
Q 3106 3584 3614 3096 
Q 4122 2609 4122 1747 
Q 4122 884 3614 396 
Q 3106 -91 2203 -91 
Q 1297 -91 786 396 
Q 275 884 275 1747 
Q 275 2609 786 3096 
Q 1297 3584 2203 3584 
z
" transform="scale(0.015625)"/>
       <path id="DejaVuSans-Bold-6d" d="M 3781 2919 
Q 3994 3244 4286 3414 
Q 4578 3584 4928 3584 
Q 5531 3584 5847 3212 
Q 6163 2841 6163 2131 
L 6163 0 
L 5038 0 
L 5038 1825 
Q 5041 1866 5042 1909 
Q 5044 1953 5044 2034 
Q 5044 2406 4934 2573 
Q 4825 2741 4581 2741 
Q 4263 2741 4089 2478 
Q 3916 2216 3909 1719 
L 3909 0 
L 2784 0 
L 2784 1825 
Q 2784 2406 2684 2573 
Q 2584 2741 2328 2741 
Q 2006 2741 1831 2477 
Q 1656 2213 1656 1722 
L 1656 0 
L 531 0 
L 531 3500 
L 1656 3500 
L 1656 2988 
Q 1863 3284 2130 3434 
Q 2397 3584 2719 3584 
Q 3081 3584 3359 3409 
Q 3638 3234 3781 2919 
z
" transform="scale(0.015625)"/>
       <path id="DejaVuSans-Bold-62" d="M 2400 722 
Q 2759 722 2948 984 
Q 3138 1247 3138 1747 
Q 3138 2247 2948 2509 
Q 2759 2772 2400 2772 
Q 2041 2772 1848 2508 
Q 1656 2244 1656 1747 
Q 1656 1250 1848 986 
Q 2041 722 2400 722 
z
M 1656 2988 
Q 1888 3294 2169 3439 
Q 2450 3584 2816 3584 
Q 3463 3584 3878 3070 
Q 4294 2556 4294 1747 
Q 4294 938 3878 423 
Q 3463 -91 2816 -91 
Q 2450 -91 2169 54 
Q 1888 200 1656 506 
L 1656 0 
L 538 0 
L 538 4863 
L 1656 4863 
L 1656 2988 
z
" transform="scale(0.015625)"/>
       <path id="DejaVuSans-Bold-69" d="M 538 3500 
L 1656 3500 
L 1656 0 
L 538 0 
L 538 3500 
z
M 538 4863 
L 1656 4863 
L 1656 3950 
L 538 3950 
L 538 4863 
z
" transform="scale(0.015625)"/>
       <path id="DejaVuSans-Bold-6e" d="M 4056 2131 
L 4056 0 
L 2931 0 
L 2931 347 
L 2931 1631 
Q 2931 2084 2911 2256 
Q 2891 2428 2841 2509 
Q 2775 2619 2662 2680 
Q 2550 2741 2406 2741 
Q 2056 2741 1856 2470 
Q 1656 2200 1656 1722 
L 1656 0 
L 538 0 
L 538 3500 
L 1656 3500 
L 1656 2988 
Q 1909 3294 2193 3439 
Q 2478 3584 2822 3584 
Q 3428 3584 3742 3212 
Q 4056 2841 4056 2131 
z
" transform="scale(0.015625)"/>
       <path id="DejaVuSans-Bold-65" d="M 4031 1759 
L 4031 1441 
L 1416 1441 
Q 1456 1047 1700 850 
Q 1944 653 2381 653 
Q 2734 653 3104 758 
Q 3475 863 3866 1075 
L 3866 213 
Q 3469 63 3072 -14 
Q 2675 -91 2278 -91 
Q 1328 -91 801 392 
Q 275 875 275 1747 
Q 275 2603 792 3093 
Q 1309 3584 2216 3584 
Q 3041 3584 3536 3087 
Q 4031 2591 4031 1759 
z
M 2881 2131 
Q 2881 2450 2695 2645 
Q 2509 2841 2209 2841 
Q 1884 2841 1681 2658 
Q 1478 2475 1428 2131 
L 2881 2131 
z
" transform="scale(0.015625)"/>
       <path id="DejaVuSans-Bold-72" d="M 3138 2547 
Q 2991 2616 2845 2648 
Q 2700 2681 2553 2681 
Q 2122 2681 1889 2404 
Q 1656 2128 1656 1613 
L 1656 0 
L 538 0 
L 538 3500 
L 1656 3500 
L 1656 2925 
Q 1872 3269 2151 3426 
Q 2431 3584 2822 3584 
Q 2878 3584 2943 3579 
Q 3009 3575 3134 3559 
L 3138 2547 
z
" transform="scale(0.015625)"/>
      </defs>
      <use xlink:href="#DejaVuSans-Bold-63"/>
      <use xlink:href="#DejaVuSans-Bold-6f" x="59.277344"/>
      <use xlink:href="#DejaVuSans-Bold-6d" x="127.978516"/>
      <use xlink:href="#DejaVuSans-Bold-62" x="232.177734"/>
      <use xlink:href="#DejaVuSans-Bold-69" x="303.759766"/>
      <use xlink:href="#DejaVuSans-Bold-6e" x="338.037109"/>
      <use xlink:href="#DejaVuSans-Bold-65" x="409.228516"/>
      <use xlink:href="#DejaVuSans-Bold-72" x="477.050781"/>
     </g>
    </g>
   </g>
   <g id="text_2">
    <g clip-path="url(#p37660b763f)">
     <!-- Communications -->
     <g transform="translate(441.988483 1272.81563) scale(0.35 -0.35)">
      <defs>
       <path id="DejaVuSans-Bold-43" d="M 4288 256 
Q 3956 84 3597 -3 
Q 3238 -91 2847 -91 
Q 1681 -91 1000 561 
Q 319 1213 319 2328 
Q 319 3447 1000 4098 
Q 1681 4750 2847 4750 
Q 3238 4750 3597 4662 
Q 3956 4575 4288 4403 
L 4288 3438 
Q 3953 3666 3628 3772 
Q 3303 3878 2944 3878 
Q 2300 3878 1931 3465 
Q 1563 3053 1563 2328 
Q 1563 1606 1931 1193 
Q 2300 781 2944 781 
Q 3303 781 3628 887 
Q 3953 994 4288 1222 
L 4288 256 
z
" transform="scale(0.015625)"/>
       <path id="DejaVuSans-Bold-75" d="M 500 1363 
L 500 3500 
L 1625 3500 
L 1625 3150 
Q 1625 2866 1622 2436 
Q 1619 2006 1619 1863 
Q 1619 1441 1641 1255 
Q 1663 1069 1716 984 
Q 1784 875 1895 815 
Q 2006 756 2150 756 
Q 2500 756 2700 1025 
Q 2900 1294 2900 1772 
L 2900 3500 
L 4019 3500 
L 4019 0 
L 2900 0 
L 2900 506 
Q 2647 200 2364 54 
Q 2081 -91 1741 -91 
Q 1134 -91 817 281 
Q 500 653 500 1363 
z
" transform="scale(0.015625)"/>
       <path id="DejaVuSans-Bold-61" d="M 2106 1575 
Q 1756 1575 1579 1456 
Q 1403 1338 1403 1106 
Q 1403 894 1545 773 
Q 1688 653 1941 653 
Q 2256 653 2472 879 
Q 2688 1106 2688 1447 
L 2688 1575 
L 2106 1575 
z
M 3816 1997 
L 3816 0 
L 2688 0 
L 2688 519 
Q 2463 200 2181 54 
Q 1900 -91 1497 -91 
Q 953 -91 614 226 
Q 275 544 275 1050 
Q 275 1666 698 1953 
Q 1122 2241 2028 2241 
L 2688 2241 
L 2688 2328 
Q 2688 2594 2478 2717 
Q 2269 2841 1825 2841 
Q 1466 2841 1156 2769 
Q 847 2697 581 2553 
L 581 3406 
Q 941 3494 1303 3539 
Q 1666 3584 2028 3584 
Q 2975 3584 3395 3211 
Q 3816 2838 3816 1997 
z
" transform="scale(0.015625)"/>
       <path id="DejaVuSans-Bold-74" d="M 1759 4494 
L 1759 3500 
L 2913 3500 
L 2913 2700 
L 1759 2700 
L 1759 1216 
Q 1759 972 1856 886 
Q 1953 800 2241 800 
L 2816 800 
L 2816 0 
L 1856 0 
Q 1194 0 917 276 
Q 641 553 641 1216 
L 641 2700 
L 84 2700 
L 84 3500 
L 641 3500 
L 641 4494 
L 1759 4494 
z
" transform="scale(0.015625)"/>
       <path id="DejaVuSans-Bold-73" d="M 3272 3391 
L 3272 2541 
Q 2913 2691 2578 2766 
Q 2244 2841 1947 2841 
Q 1628 2841 1473 2761 
Q 1319 2681 1319 2516 
Q 1319 2381 1436 2309 
Q 1553 2238 1856 2203 
L 2053 2175 
Q 2913 2066 3209 1816 
Q 3506 1566 3506 1031 
Q 3506 472 3093 190 
Q 2681 -91 1863 -91 
Q 1516 -91 1145 -36 
Q 775 19 384 128 
L 384 978 
Q 719 816 1070 734 
Q 1422 653 1784 653 
Q 2113 653 2278 743 
Q 2444 834 2444 1013 
Q 2444 1163 2330 1236 
Q 2216 1309 1875 1350 
L 1678 1375 
Q 931 1469 631 1722 
Q 331 1975 331 2491 
Q 331 3047 712 3315 
Q 1094 3584 1881 3584 
Q 2191 3584 2531 3537 
Q 2872 3491 3272 3391 
z
" transform="scale(0.015625)"/>
      </defs>
      <use xlink:href="#DejaVuSans-Bold-43"/>
      <use xlink:href="#DejaVuSans-Bold-6f" x="73.388672"/>
      <use xlink:href="#DejaVuSans-Bold-6d" x="142.089844"/>
      <use xlink:href="#DejaVuSans-Bold-6d" x="246.289062"/>
      <use xlink:href="#DejaVuSans-Bold-75" x="350.488281"/>
      <use xlink:href="#DejaVuSans-Bold-6e" x="421.679688"/>
      <use xlink:href="#DejaVuSans-Bold-69" x="492.871094"/>
      <use xlink:href="#DejaVuSans-Bold-63" x="527.148438"/>
      <use xlink:href="#DejaVuSans-Bold-61" x="586.425781"/>
      <use xlink:href="#DejaVuSans-Bold-74" x="653.90625"/>
      <use xlink:href="#DejaVuSans-Bold-69" x="701.708984"/>
      <use xlink:href="#DejaVuSans-Bold-6f" x="735.986328"/>
      <use xlink:href="#DejaVuSans-Bold-6e" x="804.6875"/>
      <use xlink:href="#DejaVuSans-Bold-73" x="875.878906"/>
     </g>
    </g>
   </g>
   <g id="text_3">
    <g clip-path="url(#p37660b763f)">
     <!-- Underperformance -->
     <g transform="translate(1261.467592 1447.099135) scale(0.35 -0.35)">
      <defs>
       <path id="DejaVuSans-Bold-55" d="M 588 4666 
L 1791 4666 
L 1791 1869 
Q 1791 1291 1980 1042 
Q 2169 794 2597 794 
Q 3028 794 3217 1042 
Q 3406 1291 3406 1869 
L 3406 4666 
L 4609 4666 
L 4609 1869 
Q 4609 878 4112 393 
Q 3616 -91 2597 -91 
Q 1581 -91 1084 393 
Q 588 878 588 1869 
L 588 4666 
z
" transform="scale(0.015625)"/>
       <path id="DejaVuSans-Bold-64" d="M 2919 2988 
L 2919 4863 
L 4044 4863 
L 4044 0 
L 2919 0 
L 2919 506 
Q 2688 197 2409 53 
Q 2131 -91 1766 -91 
Q 1119 -91 703 423 
Q 288 938 288 1747 
Q 288 2556 703 3070 
Q 1119 3584 1766 3584 
Q 2128 3584 2408 3439 
Q 2688 3294 2919 2988 
z
M 2181 722 
Q 2541 722 2730 984 
Q 2919 1247 2919 1747 
Q 2919 2247 2730 2509 
Q 2541 2772 2181 2772 
Q 1825 2772 1636 2509 
Q 1447 2247 1447 1747 
Q 1447 1247 1636 984 
Q 1825 722 2181 722 
z
" transform="scale(0.015625)"/>
       <path id="DejaVuSans-Bold-70" d="M 1656 506 
L 1656 -1331 
L 538 -1331 
L 538 3500 
L 1656 3500 
L 1656 2988 
Q 1888 3294 2169 3439 
Q 2450 3584 2816 3584 
Q 3463 3584 3878 3070 
Q 4294 2556 4294 1747 
Q 4294 938 3878 423 
Q 3463 -91 2816 -91 
Q 2450 -91 2169 54 
Q 1888 200 1656 506 
z
M 2400 2772 
Q 2041 2772 1848 2508 
Q 1656 2244 1656 1747 
Q 1656 1250 1848 986 
Q 2041 722 2400 722 
Q 2759 722 2948 984 
Q 3138 1247 3138 1747 
Q 3138 2247 2948 2509 
Q 2759 2772 2400 2772 
z
" transform="scale(0.015625)"/>
       <path id="DejaVuSans-Bold-66" d="M 2841 4863 
L 2841 4128 
L 2222 4128 
Q 1984 4128 1890 4042 
Q 1797 3956 1797 3744 
L 1797 3500 
L 2753 3500 
L 2753 2700 
L 1797 2700 
L 1797 0 
L 678 0 
L 678 2700 
L 122 2700 
L 122 3500 
L 678 3500 
L 678 3744 
Q 678 4316 997 4589 
Q 1316 4863 1984 4863 
L 2841 4863 
z
" transform="scale(0.015625)"/>
      </defs>
      <use xlink:href="#DejaVuSans-Bold-55"/>
      <use xlink:href="#DejaVuSans-Bold-6e" x="81.201172"/>
      <use xlink:href="#DejaVuSans-Bold-64" x="152.392578"/>
      <use xlink:href="#DejaVuSans-Bold-65" x="223.974609"/>
      <use xlink:href="#DejaVuSans-Bold-72" x="291.796875"/>
      <use xlink:href="#DejaVuSans-Bold-70" x="341.113281"/>
      <use xlink:href="#DejaVuSans-Bold-65" x="412.695312"/>
      <use xlink:href="#DejaVuSans-Bold-72" x="480.517578"/>
      <use xlink:href="#DejaVuSans-Bold-66" x="529.833984"/>
      <use xlink:href="#DejaVuSans-Bold-6f" x="573.339844"/>
      <use xlink:href="#DejaVuSans-Bold-72" x="642.041016"/>
      <use xlink:href="#DejaVuSans-Bold-6d" x="691.357422"/>
      <use xlink:href="#DejaVuSans-Bold-61" x="795.556641"/>
      <use xlink:href="#DejaVuSans-Bold-6e" x="863.037109"/>
      <use xlink:href="#DejaVuSans-Bold-63" x="934.228516"/>
      <use xlink:href="#DejaVuSans-Bold-65" x="993.505859"/>
     </g>
    </g>
   </g>
   <g id="text_4">
    <g clip-path="url(#p37660b763f)">
     <!-- facility -->
     <g transform="translate(2221.149371 1272.678699) scale(0.35 -0.35)">
      <defs>
       <path id="DejaVuSans-Bold-6c" d="M 538 4863 
L 1656 4863 
L 1656 0 
L 538 0 
L 538 4863 
z
" transform="scale(0.015625)"/>
       <path id="DejaVuSans-Bold-79" d="M 78 3500 
L 1197 3500 
L 2138 1125 
L 2938 3500 
L 4056 3500 
L 2584 -331 
Q 2363 -916 2067 -1148 
Q 1772 -1381 1288 -1381 
L 641 -1381 
L 641 -647 
L 991 -647 
Q 1275 -647 1404 -556 
Q 1534 -466 1606 -231 
L 1638 -134 
L 78 3500 
z
" transform="scale(0.015625)"/>
      </defs>
      <use xlink:href="#DejaVuSans-Bold-66"/>
      <use xlink:href="#DejaVuSans-Bold-61" x="43.505859"/>
      <use xlink:href="#DejaVuSans-Bold-63" x="110.986328"/>
      <use xlink:href="#DejaVuSans-Bold-69" x="170.263672"/>
      <use xlink:href="#DejaVuSans-Bold-6c" x="204.541016"/>
      <use xlink:href="#DejaVuSans-Bold-69" x="238.818359"/>
      <use xlink:href="#DejaVuSans-Bold-74" x="273.095703"/>
      <use xlink:href="#DejaVuSans-Bold-79" x="320.898438"/>
     </g>
    </g>
   </g>
   <g id="text_5">
    <g clip-path="url(#p37660b763f)">
     <!-- Production Outage -->
     <g transform="translate(2451.602176 851.92099) scale(0.35 -0.35)">
      <defs>
       <path id="DejaVuSans-Bold-50" d="M 588 4666 
L 2584 4666 
Q 3475 4666 3951 4270 
Q 4428 3875 4428 3144 
Q 4428 2409 3951 2014 
Q 3475 1619 2584 1619 
L 1791 1619 
L 1791 0 
L 588 0 
L 588 4666 
z
M 1791 3794 
L 1791 2491 
L 2456 2491 
Q 2806 2491 2997 2661 
Q 3188 2831 3188 3144 
Q 3188 3456 2997 3625 
Q 2806 3794 2456 3794 
L 1791 3794 
z
" transform="scale(0.015625)"/>
       <path id="DejaVuSans-Bold-20" transform="scale(0.015625)"/>
       <path id="DejaVuSans-Bold-4f" d="M 2719 3878 
Q 2169 3878 1866 3472 
Q 1563 3066 1563 2328 
Q 1563 1594 1866 1187 
Q 2169 781 2719 781 
Q 3272 781 3575 1187 
Q 3878 1594 3878 2328 
Q 3878 3066 3575 3472 
Q 3272 3878 2719 3878 
z
M 2719 4750 
Q 3844 4750 4481 4106 
Q 5119 3463 5119 2328 
Q 5119 1197 4481 553 
Q 3844 -91 2719 -91 
Q 1597 -91 958 553 
Q 319 1197 319 2328 
Q 319 3463 958 4106 
Q 1597 4750 2719 4750 
z
" transform="scale(0.015625)"/>
       <path id="DejaVuSans-Bold-67" d="M 2919 594 
Q 2688 288 2409 144 
Q 2131 0 1766 0 
Q 1125 0 706 504 
Q 288 1009 288 1791 
Q 288 2575 706 3076 
Q 1125 3578 1766 3578 
Q 2131 3578 2409 3434 
Q 2688 3291 2919 2981 
L 2919 3500 
L 4044 3500 
L 4044 353 
Q 4044 -491 3511 -936 
Q 2978 -1381 1966 -1381 
Q 1638 -1381 1331 -1331 
Q 1025 -1281 716 -1178 
L 716 -306 
Q 1009 -475 1290 -558 
Q 1572 -641 1856 -641 
Q 2406 -641 2662 -400 
Q 2919 -159 2919 353 
L 2919 594 
z
M 2181 2772 
Q 1834 2772 1640 2515 
Q 1447 2259 1447 1791 
Q 1447 1309 1634 1061 
Q 1822 813 2181 813 
Q 2531 813 2725 1069 
Q 2919 1325 2919 1791 
Q 2919 2259 2725 2515 
Q 2531 2772 2181 2772 
z
" transform="scale(0.015625)"/>
      </defs>
      <use xlink:href="#DejaVuSans-Bold-50"/>
      <use xlink:href="#DejaVuSans-Bold-72" x="73.291016"/>
      <use xlink:href="#DejaVuSans-Bold-6f" x="122.607422"/>
      <use xlink:href="#DejaVuSans-Bold-64" x="191.308594"/>
      <use xlink:href="#DejaVuSans-Bold-75" x="262.890625"/>
      <use xlink:href="#DejaVuSans-Bold-63" x="334.082031"/>
      <use xlink:href="#DejaVuSans-Bold-74" x="393.359375"/>
      <use xlink:href="#DejaVuSans-Bold-69" x="441.162109"/>
      <use xlink:href="#DejaVuSans-Bold-6f" x="475.439453"/>
      <use xlink:href="#DejaVuSans-Bold-6e" x="544.140625"/>
      <use xlink:href="#DejaVuSans-Bold-20" x="615.332031"/>
      <use xlink:href="#DejaVuSans-Bold-4f" x="650.146484"/>
      <use xlink:href="#DejaVuSans-Bold-75" x="735.15625"/>
      <use xlink:href="#DejaVuSans-Bold-74" x="806.347656"/>
      <use xlink:href="#DejaVuSans-Bold-61" x="854.150391"/>
      <use xlink:href="#DejaVuSans-Bold-67" x="921.630859"/>
      <use xlink:href="#DejaVuSans-Bold-65" x="993.212891"/>
     </g>
    </g>
   </g>
   <g id="text_6">
    <g clip-path="url(#p37660b763f)">
     <!-- inverter -->
     <g transform="translate(2209.486978 431.300066) scale(0.35 -0.35)">
      <defs>
       <path id="DejaVuSans-Bold-76" d="M 97 3500 
L 1216 3500 
L 2088 1081 
L 2956 3500 
L 4078 3500 
L 2700 0 
L 1472 0 
L 97 3500 
z
" transform="scale(0.015625)"/>
      </defs>
      <use xlink:href="#DejaVuSans-Bold-69"/>
      <use xlink:href="#DejaVuSans-Bold-6e" x="34.277344"/>
      <use xlink:href="#DejaVuSans-Bold-76" x="105.46875"/>
      <use xlink:href="#DejaVuSans-Bold-65" x="170.654297"/>
      <use xlink:href="#DejaVuSans-Bold-72" x="238.476562"/>
      <use xlink:href="#DejaVuSans-Bold-74" x="287.792969"/>
      <use xlink:href="#DejaVuSans-Bold-65" x="335.595703"/>
      <use xlink:href="#DejaVuSans-Bold-72" x="403.417969"/>
     </g>
    </g>
   </g>
   <g id="text_7">
    <g clip-path="url(#p37660b763f)">
     <!-- other -->
     <g transform="translate(1393.854676 257.01649) scale(0.35 -0.35)">
      <defs>
       <path id="DejaVuSans-Bold-68" d="M 4056 2131 
L 4056 0 
L 2931 0 
L 2931 347 
L 2931 1625 
Q 2931 2084 2911 2256 
Q 2891 2428 2841 2509 
Q 2775 2619 2662 2680 
Q 2550 2741 2406 2741 
Q 2056 2741 1856 2470 
Q 1656 2200 1656 1722 
L 1656 0 
L 538 0 
L 538 4863 
L 1656 4863 
L 1656 2988 
Q 1909 3294 2193 3439 
Q 2478 3584 2822 3584 
Q 3428 3584 3742 3212 
Q 4056 2841 4056 2131 
z
" transform="scale(0.015625)"/>
      </defs>
      <use xlink:href="#DejaVuSans-Bold-6f"/>
      <use xlink:href="#DejaVuSans-Bold-74" x="68.701172"/>
      <use xlink:href="#DejaVuSans-Bold-68" x="116.503906"/>
      <use xlink:href="#DejaVuSans-Bold-65" x="187.695312"/>
      <use xlink:href="#DejaVuSans-Bold-72" x="255.517578"/>
     </g>
    </g>
   </g>
   <g id="text_8">
    <g clip-path="url(#p37660b763f)">
     <!-- tracker -->
     <g transform="translate(534.82886 431.299924) scale(0.35 -0.35)">
      <defs>
       <path id="DejaVuSans-Bold-6b" d="M 538 4863 
L 1656 4863 
L 1656 2216 
L 2944 3500 
L 4244 3500 
L 2534 1894 
L 4378 0 
L 3022 0 
L 1656 1459 
L 1656 0 
L 538 0 
L 538 4863 
z
" transform="scale(0.015625)"/>
      </defs>
      <use xlink:href="#DejaVuSans-Bold-74"/>
      <use xlink:href="#DejaVuSans-Bold-72" x="47.802734"/>
      <use xlink:href="#DejaVuSans-Bold-61" x="97.119141"/>
      <use xlink:href="#DejaVuSans-Bold-63" x="164.599609"/>
      <use xlink:href="#DejaVuSans-Bold-6b" x="223.876953"/>
      <use xlink:href="#DejaVuSans-Bold-65" x="287.755859"/>
      <use xlink:href="#DejaVuSans-Bold-72" x="355.578125"/>
     </g>
    </g>
   </g>
  </g>
  <g id="text_9">
   <!-- Connectivity between Asset and ImpactLevel -->
   <g transform="translate(812.078906 45.192188) scale(0.5 -0.5)">
    <defs>
     <path id="DejaVuSans-Bold-77" d="M 225 3500 
L 1313 3500 
L 1900 1088 
L 2491 3500 
L 3425 3500 
L 4013 1113 
L 4603 3500 
L 5691 3500 
L 4769 0 
L 3547 0 
L 2956 2406 
L 2369 0 
L 1147 0 
L 225 3500 
z
" transform="scale(0.015625)"/>
     <path id="DejaVuSans-Bold-41" d="M 3419 850 
L 1538 850 
L 1241 0 
L 31 0 
L 1759 4666 
L 3194 4666 
L 4922 0 
L 3713 0 
L 3419 850 
z
M 1838 1716 
L 3116 1716 
L 2478 3572 
L 1838 1716 
z
" transform="scale(0.015625)"/>
     <path id="DejaVuSans-Bold-49" d="M 588 4666 
L 1791 4666 
L 1791 0 
L 588 0 
L 588 4666 
z
" transform="scale(0.015625)"/>
     <path id="DejaVuSans-Bold-4c" d="M 588 4666 
L 1791 4666 
L 1791 909 
L 3903 909 
L 3903 0 
L 588 0 
L 588 4666 
z
" transform="scale(0.015625)"/>
    </defs>
    <use xlink:href="#DejaVuSans-Bold-43"/>
    <use xlink:href="#DejaVuSans-Bold-6f" x="73.388672"/>
    <use xlink:href="#DejaVuSans-Bold-6e" x="142.089844"/>
    <use xlink:href="#DejaVuSans-Bold-6e" x="213.28125"/>
    <use xlink:href="#DejaVuSans-Bold-65" x="284.472656"/>
    <use xlink:href="#DejaVuSans-Bold-63" x="352.294922"/>
    <use xlink:href="#DejaVuSans-Bold-74" x="411.572266"/>
    <use xlink:href="#DejaVuSans-Bold-69" x="459.375"/>
    <use xlink:href="#DejaVuSans-Bold-76" x="493.652344"/>
    <use xlink:href="#DejaVuSans-Bold-69" x="558.837891"/>
    <use xlink:href="#DejaVuSans-Bold-74" x="593.115234"/>
    <use xlink:href="#DejaVuSans-Bold-79" x="640.917969"/>
    <use xlink:href="#DejaVuSans-Bold-20" x="706.103516"/>
    <use xlink:href="#DejaVuSans-Bold-62" x="740.917969"/>
    <use xlink:href="#DejaVuSans-Bold-65" x="812.5"/>
    <use xlink:href="#DejaVuSans-Bold-74" x="880.322266"/>
    <use xlink:href="#DejaVuSans-Bold-77" x="928.125"/>
    <use xlink:href="#DejaVuSans-Bold-65" x="1020.507812"/>
    <use xlink:href="#DejaVuSans-Bold-65" x="1088.330078"/>
    <use xlink:href="#DejaVuSans-Bold-6e" x="1156.152344"/>
    <use xlink:href="#DejaVuSans-Bold-20" x="1227.34375"/>
    <use xlink:href="#DejaVuSans-Bold-41" x="1262.158203"/>
    <use xlink:href="#DejaVuSans-Bold-73" x="1339.550781"/>
    <use xlink:href="#DejaVuSans-Bold-73" x="1399.072266"/>
    <use xlink:href="#DejaVuSans-Bold-65" x="1458.59375"/>
    <use xlink:href="#DejaVuSans-Bold-74" x="1526.416016"/>
    <use xlink:href="#DejaVuSans-Bold-20" x="1574.21875"/>
    <use xlink:href="#DejaVuSans-Bold-61" x="1609.033203"/>
    <use xlink:href="#DejaVuSans-Bold-6e" x="1676.513672"/>
    <use xlink:href="#DejaVuSans-Bold-64" x="1747.705078"/>
    <use xlink:href="#DejaVuSans-Bold-20" x="1819.287109"/>
    <use xlink:href="#DejaVuSans-Bold-49" x="1854.101562"/>
    <use xlink:href="#DejaVuSans-Bold-6d" x="1891.308594"/>
    <use xlink:href="#DejaVuSans-Bold-70" x="1995.507812"/>
    <use xlink:href="#DejaVuSans-Bold-61" x="2067.089844"/>
    <use xlink:href="#DejaVuSans-Bold-63" x="2134.570312"/>
    <use xlink:href="#DejaVuSans-Bold-74" x="2193.847656"/>
    <use xlink:href="#DejaVuSans-Bold-4c" x="2241.650391"/>
    <use xlink:href="#DejaVuSans-Bold-65" x="2305.371094"/>
    <use xlink:href="#DejaVuSans-Bold-76" x="2373.193359"/>
    <use xlink:href="#DejaVuSans-Bold-65" x="2438.378906"/>
    <use xlink:href="#DejaVuSans-Bold-6c" x="2506.201172"/>
   </g>
  </g>
 </g>
 <defs>
  <clipPath id="p37660b763f">
   <rect x="7.2" y="122.4" width="2880" height="1440"/>
  </clipPath>
 </defs>
</svg>
